<svg xmlns="http://www.w3.org/2000/svg" data-name="Layer 1" viewBox="0 0 64 64"><path d="M62.51,1.14a1,1,0,0,0-1,0L43.88,10.92,23.27,5a1,1,0,0,0-.63,0l-21,8A1,1,0,0,0,1,14V62a1,1,0,0,0,1,1,.92.92,0,0,0,.36-.07L23,55.05,43.73,61a1,1,0,0,0,.76-.09l18-10A1,1,0,0,0,63,50V2A1,1,0,0,0,62.51,1.14ZM22,53.31,3,60.55V14.69L22,7.45Zm21,5.36L24,53.25V32H41V30H24V7.33l19,5.42Zm18-9.26L45,58.3V12.59L61,3.7Z"/><rect width="2" height="2" x="5" y="55"/><rect width="2" height="2" x="8" y="52"/><rect width="2" height="2" x="12" y="50"/><rect width="2" height="2" x="9" y="21"/><rect width="2" height="2" x="12" y="18"/><rect width="2" height="2" x="16" y="16"/><rect width="2" height="2" x="16" y="12"/><rect width="2" height="2" x="16" y="50"/><rect width="2" height="2" x="16" y="46"/><rect width="2" height="2" x="16" y="42"/><rect width="2" height="2" x="33" y="34"/><rect width="2" height="2" x="33" y="26"/><rect width="2" height="2" x="33" y="22"/><rect width="2" height="2" x="33" y="18"/><rect width="2" height="2" x="51" y="48"/><rect width="2" height="2" x="47" y="48"/><rect width="2" height="2" x="51" y="44"/><rect width="2" height="2" x="51" y="40"/><rect width="2" height="2" x="55" y="40"/><rect width="2" height="2" x="55" y="36"/><rect width="2" height="2" x="55" y="32"/><rect width="2" height="2" x="30" y="16"/><rect width="2" height="2" x="26" y="15"/><rect width="2" height="2" x="26" y="11"/><rect width="2" height="2" x="5" y="29"/><rect width="2" height="2" x="5" y="25"/><rect width="2" height="2" x="5" y="21"/><path d="M6 36c0 2.07 3.52 3 7 3s7-.93 7-3c0-1.65-2.24-2.52-4.65-2.85A10.63 10.63 0 0 0 17 29a4 4 0 0 0-8 0 10.63 10.63 0 0 0 1.65 4.15C8.24 33.48 6 34.35 6 36zm6.18-.43a1 1 0 0 0 1.64 0l.36-.53a8.06 8.06 0 0 1 3.73 1c-.47.37-2.15 1-4.91 1s-4.44-.63-4.91-1a8.06 8.06 0 0 1 3.73-1zM36.35 46.15A10.63 10.63 0 0 0 38 42a4 4 0 0 0-8 0 10.63 10.63 0 0 0 1.65 4.15C29.24 46.48 27 47.35 27 49c0 2.07 3.52 3 7 3s7-.93 7-3C41 47.35 38.76 46.48 36.35 46.15zM34 50c-2.76 0-4.44-.63-4.91-1a8.06 8.06 0 0 1 3.73-1l.36.53a1 1 0 0 0 1.64 0l.36-.53a8.06 8.06 0 0 1 3.73 1C38.44 49.37 36.76 50 34 50zM55 26H52V21.66l6.39-2.74a1 1 0 0 0 0-1.84L52 14.34V13H50V26H47v2h8z"/></svg>