<svg xmlns="http://www.w3.org/2000/svg" viewBox="0 0 32 32"><path d="M29 10c.432 0 .831.185 1.124.519A.5.5 0 0 0 31 10.19V5a.5.5 0 0 0-.5-.5h-4.213c.139-.313.213-.653.213-1C26.5 2.122 25.378 1 24 1s-2.5 1.122-2.5 2.5c0 .347.074.687.213 1H18.5v-3A.5.5 0 0 0 18 1h-5.19a.5.5 0 0 0-.329.876c.334.293.519.692.519 1.124 0 .827-.673 1.5-1.5 1.5S10 3.827 10 3c0-.432.185-.831.519-1.124A.5.5 0 0 0 10.19 1H5a.5.5 0 0 0-.5.5v4.213a2.463 2.463 0 0 0-1-.213C2.122 5.5 1 6.622 1 8s1.122 2.5 2.5 2.5c.347 0 .687-.074 1-.213V13.5h-3a.5.5 0 0 0-.5.5v5.189a.5.5 0 0 0 .876.329A1.483 1.483 0 0 1 3 19c.827 0 1.5.673 1.5 1.5S3.827 22 3 22c-.432 0-.831-.185-1.124-.519a.504.504 0 0 0-.552-.139.502.502 0 0 0-.324.469V27a.5.5 0 0 0 .5.5h4.213a2.46 2.46 0 0 0-.213 1C5.5 29.879 6.622 31 8 31s2.5-1.121 2.5-2.5c0-.348-.074-.688-.213-1H13.5v3a.5.5 0 0 0 .5.5h5.19a.5.5 0 0 0 .328-.877A1.495 1.495 0 0 1 19 29c0-.827.673-1.5 1.5-1.5s1.5.673 1.5 1.5c0 .426-.189.836-.519 1.123a.5.5 0 1 0 .329.877H27a.5.5 0 0 0 .5-.5v-4.213c.313.139.653.213 1 .213 1.378 0 2.5-1.121 2.5-2.5s-1.122-2.5-2.5-2.5c-.347 0-.687.074-1 .213V18.5h3a.5.5 0 0 0 .5-.5v-5.19a.5.5 0 0 0-.876-.329A1.481 1.481 0 0 1 29 13c-.827 0-1.5-.673-1.5-1.5S28.173 10 29 10zm-12 7h-2v-2h2v2zM5.176 8.842a.5.5 0 0 0-.552.139A1.481 1.481 0 0 1 3.5 9.5C2.673 9.5 2 8.827 2 8s.673-1.5 1.5-1.5c.432 0 .831.185 1.124.519A.5.5 0 0 0 5.5 6.69V2h3.713A2.463 2.463 0 0 0 9 3c0 1.378 1.122 2.5 2.5 2.5S14 4.378 14 3c0-.347-.074-.687-.213-1H17.5v12H15a.5.5 0 0 0-.5-.5h-9V9.31a.5.5 0 0 0-.324-.468zM9.31 26.5a.5.5 0 0 0-.328.877c.329.287.518.697.518 1.123 0 .827-.673 1.5-1.5 1.5s-1.5-.673-1.5-1.5c0-.426.189-.836.519-1.123a.5.5 0 1 0-.329-.877H2v-3.713c.313.139.653.213 1 .213 1.378 0 2.5-1.121 2.5-2.5S4.378 18 3 18c-.347 0-.687.074-1 .213V14.5h12v12H9.31zm17.514-3.343a.5.5 0 0 0 .552-.139 1.48 1.48 0 0 1 1.124-.519c.827 0 1.5.673 1.5 1.5s-.673 1.5-1.5 1.5c-.432 0-.831-.185-1.124-.519a.502.502 0 0 0-.876.329V30h-3.713c.139-.312.213-.652.213-1 0-1.379-1.122-2.5-2.5-2.5S18 27.621 18 29c0 .348.074.688.213 1H14.5v-2.5a.5.5 0 0 0 .5-.5v-9h2a.5.5 0 0 0 .5.5h9v4.189a.5.5 0 0 0 .324.468zM29 14c.347 0 .687-.074 1-.213V17.5H18V15a.5.5 0 0 0 .5-.5v-9h4.19a.5.5 0 0 0 .329-.876A1.481 1.481 0 0 1 22.5 3.5c0-.827.673-1.5 1.5-1.5s1.5.673 1.5 1.5c0 .432-.185.831-.519 1.124a.5.5 0 0 0 .329.876H30v3.713A2.463 2.463 0 0 0 29 9c-1.378 0-2.5 1.122-2.5 2.5S27.622 14 29 14z"/></svg>