<svg xmlns="http://www.w3.org/2000/svg" fill-rule="evenodd" stroke-linejoin="round" stroke-miterlimit="2" clip-rule="evenodd" viewBox="0 0 32 32"><path d="M12.301,12.301l-2.914,-1.223c-0.287,-0.12 -0.613,-0.101 -0.883,0.054l-7,4c-0.312,0.178 -0.504,0.509 -0.504,0.868c0,0.359 0.192,0.69 0.504,0.868l7,4c0.27,0.155 0.596,0.174 0.883,0.054l2.914,-1.223l-1.223,2.914c-0.12,0.287 -0.101,0.613 0.054,0.883l4,7c0.178,0.312 0.509,0.504 0.868,0.504c0.359,0 0.69,-0.192 0.868,-0.504l4,-7c0.155,-0.27 0.174,-0.596 0.054,-0.883l-1.223,-2.914l2.914,1.223c0.287,0.12 0.613,0.101 0.883,-0.054l7,-4c0.312,-0.178 0.504,-0.509 0.504,-0.868c0,-0.359 -0.192,-0.69 -0.504,-0.868l-7,-4c-0.27,-0.155 -0.596,-0.174 -0.883,-0.054l-2.914,1.223l1.223,-2.914c0.12,-0.287 0.101,-0.613 -0.054,-0.883l-4,-7c-0.178,-0.312 -0.509,-0.504 -0.868,-0.504c-0.359,-0 -0.69,0.192 -0.868,0.504l-4,7c-0.155,0.27 -0.174,0.596 -0.054,0.883l1.223,2.914Zm5.228,7.396c-0.171,0.071 -0.347,0.13 -0.529,0.177l0,2.126c0,0.552 -0.448,1 -1,1c-0.552,0 -1,-0.448 -1,-1l0,-2.126c-0.182,-0.047 -0.358,-0.106 -0.529,-0.177l-1.358,3.235c-0,0 2.887,5.052 2.887,5.052c0,0 2.887,-5.052 2.887,-5.052l-1.358,-3.235Zm-0.212,-5.202c-0.352,-0.308 -0.813,-0.495 -1.317,-0.495c-0.504,0 -0.965,0.187 -1.317,0.495c-0.01,0.01 -0.021,0.02 -0.033,0.029c-0.399,0.366 -0.65,0.892 -0.65,1.476c0,0.584 0.251,1.11 0.65,1.476c0.012,0.009 0.023,0.019 0.033,0.029c0.352,0.308 0.813,0.495 1.317,0.495c0.504,0 0.965,-0.187 1.317,-0.495c0.01,-0.01 0.021,-0.02 0.033,-0.029c0.399,-0.366 0.65,-0.892 0.65,-1.476c0,-0.584 -0.251,-1.11 -0.65,-1.476c-0.012,-0.009 -0.023,-0.019 -0.033,-0.029Zm-5.191,0.505l-2.126,0c-0.552,0 -1,0.448 -1,1c0,0.552 0.448,1 1,1l2.126,0c-0.082,-0.32 -0.126,-0.655 -0.126,-1c0,-0.345 0.044,-0.68 0.126,-1Zm7.748,0c0.082,0.32 0.126,0.655 0.126,1c0,0.345 -0.044,0.68 -0.126,1l2.126,0c0.552,0 1,-0.448 1,-1c0,-0.552 -0.448,-1 -1,-1l-2.126,0Zm-2.345,-2.697l1.358,-3.235c0,-0 -2.887,-5.052 -2.887,-5.052c-0,-0 -2.887,5.052 -2.887,5.052l1.358,3.235c0.171,-0.071 0.347,-0.13 0.529,-0.177l0,-2.126c0,-0.552 0.448,-1 1,-1c0.552,0 1,0.448 1,1l0,2.126c0.182,0.047 0.358,0.106 0.529,0.177Z"/></svg>