<svg xmlns="http://www.w3.org/2000/svg" viewBox="0 0 100 100"><path d="M94.6 21.5V7.4c0-1.1-.9-2-2-2H78.5c-.5 0-1 .2-1.4.6L50 33 23 6c-.4-.4-.9-.6-1.4-.6H7.4c-1.1 0-2 .9-2 2v14.1c0 .5.2 1 .6 1.4l27 27-6.9 6.9-2.8-2.8c-.4-.4-.9-.6-1.4-.6h-8.5c-1.1 0-2 .9-2 2s.9 2 2 2h7.7l4.4 4.4-5.6 5.7c-.1.1-.2.3-.3.4l-6 10.7c-2.1 0-4.1.8-5.7 2.3-3.1 3.1-3.1 8.2 0 11.3 1.5 1.6 3.6 2.3 5.7 2.3 2 0 4.1-.8 5.7-2.3 1.5-1.5 2.3-3.5 2.3-5.7l10.7-6c.2-.1.3-.2.4-.3l5.7-5.7.7.7 3.7 3.7v7.7c0 1.1.9 2 2 2s2-.9 2-2v-8.5c0-.5-.2-1-.6-1.4l-2.8-2.8L50 67l6.9 6.9-2.8 2.8c-.4.4-.6.9-.6 1.4v8.5c0 1.1.9 2 2 2s2-.9 2-2v-7.7l4.4-4.4 5.7 5.7c.1.1.3.2.4.3l10.7 6c0 2.1.8 4.1 2.3 5.7 1.6 1.6 3.6 2.3 5.7 2.3s4.1-.8 5.7-2.3c3.1-3.1 3.1-8.2 0-11.3-1.5-1.5-3.5-2.3-5.7-2.3l-6-10.7c-.1-.2-.2-.3-.3-.4l-5.6-5.7 4.4-4.4h7.7c1.1 0 2-.9 2-2s-.9-2-2-2h-8.5c-.5 0-1 .2-1.4.6l-2.8 2.8L67 50l27-27c.4-.4.6-.9.6-1.5zM79.3 9.4h8.5L57.1 40.1l-4.2-4.2L79.3 9.4zM35.9 52.8l4.2 4.2-6.9 7-4.2-4.3 6.9-6.9zM16.2 89.4c-1.6 1.6-4.1 1.6-5.7 0s-1.6-4.1 0-5.7c.8-.8 1.8-1.2 2.8-1.2 1.1 0 2.1.4 2.8 1.2.8.8 1.2 1.8 1.2 2.8s-.3 2.2-1.1 2.9zm4.1-6.8c-.4-.6-.8-1.2-1.3-1.7s-1-.9-1.6-1.2l4.2-7.5 6.2 6.2-7.5 4.2zM31.1 76 24 68.9l4.2-4.2 7.1 7.1-4.2 4.2zm9.2-5L36 66.8l6.9-6.9 4.2 4.2-6.8 6.9zm19.4 0L9.4 20.7v-8.5L64 66.8 59.7 71zm26.9 11.6c1.1 0 2.1.4 2.8 1.2 1.6 1.6 1.6 4.1 0 5.7s-4.1 1.6-5.7 0c-.8-.8-1.2-1.8-1.2-2.8s.4-2.1 1.2-2.8c.8-.9 1.8-1.3 2.9-1.3zm-4-2.9c-.6.3-1.2.8-1.7 1.3s-.9 1-1.2 1.6l-7.5-4.2 6.2-6.2 4.2 7.5zM76 68.9 68.9 76l-4.2-4.2 7.1-7.1 4.2 4.2zm-5-9.2L66.8 64 12.2 9.4h8.5L71 59.7zm19.6-39L64.1 47.2 59.9 43l30.7-30.7v8.4z"/></svg>